# xmcd CD database file
#
# Track frame offsets:
#	150
#	11254
#	37565
#	54864
#	69740
#	82451
#	99243
#	110607
#	125113
#	141250
#	155165
#	166915
#	181586
#	211047
#
# Disc length: 3132 seconds
#
# Revision: 0
# Processed by: cddbd v1.4PL0 Copyright (c) Steve Scherf et al.
# Submitted via: CDex 1.40Release
#
DISCID=b30c3a0e
DTITLE=The Millionaires - Keep A Dollar In Your Pocket
DYEAR=1999
DGENRE=Blues
TTITLE0=The Hucklebuck
TTITLE1=Look At That Cadillac
TTITLE2=Strollin' With Bone
TTITLE3=Keep A Dollar In Your Pocket
TTITLE4=Flying Home
TTITLE5=Tell Me What's The Reason
TTITLE6=Harlem Nocturne
TTITLE7=It's Obdacious
TTITLE8=Blowin' The Horn
TTITLE9=Smooth Sailing
TTITLE10=I Walked Away
TTITLE11=Joe's Rock
TTITLE12=I'm Just Your Fool
TTITLE13=T-Bone Boogie
EXTD=YEAR: 1999 ID3G: 0
EXTT0=
EXTT1=
EXTT2=
EXTT3=
EXTT4=
EXTT5=
EXTT6=
EXTT7=
EXTT8=
EXTT9=
EXTT10=
EXTT11=
EXTT12=
EXTT13=
PLAYORDER=
